<svg width="316" height="76" viewBox="0 0 316 76" fill="none" xmlns="http://www.w3.org/2000/svg">
<path d="M125.582 48.6332V59.3164H90.6515V17.3037H124.802V27.987H104.576V32.9084H122.341V43.1115H104.576V48.6332H125.582ZM172.447 17.3037V59.3164H160.804L144.839 40.2306V59.3164H131.035V17.3037H142.678L158.643 36.3895V17.3037H172.447ZM224.166 17.3037L206.4 59.3164H192.476L174.711 17.3037H189.955L199.978 41.8511L210.241 17.3037H224.166ZM229.875 17.3037H234.317V59.3164H229.875V17.3037ZM256.149 21.1449H241.384V17.3037H275.354V21.1449H260.59V59.3164H256.149V21.1449ZM312.159 55.4752V59.3164H282.45V17.3037H311.258V21.1449H286.891V36.0894H308.618V39.8705H286.891V55.4752H312.159Z" fill="#00FFBB"/>
<g clip-path="url(#clip0_1381_343)">
<circle cx="37.9866" cy="37.3923" r="37.096" stroke="#00FFBB" stroke-width="0.593537"/>
<circle cx="37.6896" cy="37.6891" r="36.4396" stroke="#00FFBB" stroke-width="2.5"/>
<g clip-path="url(#clip1_1381_343)">
<path d="M75.3802 7.78219C75.3225 7.76062 75.2647 7.73739 75.207 7.71582C73.2735 9.5759 58.3054 20.6949 57.309 21.5876C57.2496 21.6241 57.5861 21.3188 57.5251 21.3537C58.1619 19.8188 54.3823 20.9272 51.9605 20.8874C50.9195 20.8708 48.5175 20.7945 47.9088 21.5876C47.4897 22.1335 45.9802 26.0346 45.1586 27.133C44.0682 28.5949 42.9414 29.0064 41.9087 29.8228C38.1044 32.8278 28.1366 40.6498 27.7094 40.5917C27.0297 39.4849 25.1605 38.6403 23.9694 38.0247C23.7071 37.4689 24.466 37.6414 24.8223 37.0358C24.5204 36.4036 23.5801 36.1447 22.6348 34.96C22.0095 34.1768 21.6317 34.1055 20.7821 32.6602C20.2855 31.8173 20.7903 30.6242 22.2768 29.7232C23.5866 28.9284 25.6373 28.721 26.8647 28.1419C27.8694 27.6673 27.3464 26.1391 26.7574 25.5584C26.1536 24.9643 26.1421 24.5445 26.345 23.466C26.1437 23.31 25.3403 23.3548 24.9658 23.3249C25.4888 23.0428 26.1256 22.1219 25.9639 21.9162C25.6736 21.5462 25.1753 20.8924 25.0137 20.3199C25.3651 19.9383 26.2031 19.6164 26.0118 19.0058C25.6785 17.9338 23.7467 18.1894 22.6364 17.3C22.1217 16.8885 22.2405 16.1434 21.9237 15.5312C21.3793 14.4792 20.236 13.0704 19.1076 12.5593C19.0416 12.3685 20.5792 11.0261 20.0282 9.62402C19.1208 7.30597 16.1711 7.78219 12.479 10.0455C12.1985 10.2164 11.4231 10.447 11.3093 10.7524C10.6593 10.6993 10.4811 11.1191 9.94 11.3248C9.42693 11.519 9.27186 11.7911 8.87262 12.0599C8.47668 12.1379 8.21438 12.5378 7.82009 12.6141C6.62073 13.2114 1.1007 15.3287 3.61985 20.9305C3.93495 21.6822 4.65094 23.3017 5.64738 25.716C6.8055 28.5269 7.19484 29.8659 8.43709 30.3222C8.45524 30.3604 9.08874 30.6209 9.10688 30.6607C6.03672 31.1436 9.97465 30.7852 7.04306 34.8306C4.67733 38.0961 3.26186 41.4993 3.93825 47.048C3.96465 47.7267 4.87365 50.9358 5.90474 53.3634C7.77884 57.7805 11.504 60.9647 12.1358 67.3895C12.7891 74.0384 11.5023 77.9079 8.96666 84.419C7.03316 88.8394 3.6512 92.2526 3.36744 93.1851C7.51819 93.0922 19.0218 90.731 25.1737 85.6718C31.6258 80.3669 33.5412 75.1517 35.2982 69.603C35.318 69.603 36.057 70.3945 36.0752 70.3945C36.5784 70.8823 36.9314 71.0748 37.3422 71.0748C38.9936 66.3873 38.6125 62.6306 35.8244 57.3723C33.9982 53.9292 30.9626 52.1587 32.8466 51.2793C36.712 48.3556 48.5159 38.8942 48.3509 38.033C47.922 35.7863 46.65 34.1552 46.1765 33.3173C47.7784 31.7824 50.0716 32.6237 51.5415 30.221C52.2096 29.1292 52.9669 27.8017 53.5624 27.2691C54.3741 26.7979 55.783 26.7016 56.7217 26.5705C58.0431 26.3847 59.3464 26.5008 58.8911 25.8255C58.609 25.4057 58.2064 25.7226 58.1355 25.5451C58.4259 25.3227 59.2408 25.1717 58.7492 24.6607C58.571 24.4748 58.9092 24.3106 58.9389 24.1015C59.033 23.4029 57.1325 23.6269 57.0137 23.3432C58.6106 21.9162 74.067 9.74349 75.3802 7.78219Z" fill="#00FFBB"/>
</g>
<mask id="mask0_1381_343" style="mask-type:alpha" maskUnits="userSpaceOnUse" x="2" y="7" width="74" height="87">
<path d="M75.3763 7.78219C75.3186 7.76062 75.2608 7.73739 75.2031 7.71582C73.2696 9.5759 58.3015 20.6949 57.3051 21.5876C57.2457 21.6241 57.5822 21.3188 57.5212 21.3537C58.158 19.8188 54.3784 20.9272 51.9566 20.8874C50.9156 20.8708 48.5136 20.7945 47.9049 21.5876C47.4858 22.1335 45.9763 26.0346 45.1547 27.133C44.0643 28.5949 42.9375 29.0064 41.9048 29.8228C38.1005 32.8278 28.1327 40.6498 27.7054 40.5917C27.0258 39.4849 25.1566 38.6403 23.9655 38.0247C23.7032 37.4689 24.4621 37.6414 24.8184 37.0358C24.5165 36.4036 23.5761 36.1447 22.6308 34.96C22.0056 34.1768 21.6278 34.1055 20.7782 32.6602C20.2816 31.8173 20.7864 30.6242 22.2729 29.7232C23.5827 28.9284 25.6334 28.721 26.8608 28.1419C27.8655 27.6673 27.3425 26.1391 26.7535 25.5584C26.1497 24.9643 26.1382 24.5445 26.3411 23.466C26.1398 23.31 25.3364 23.3548 24.9619 23.3249C25.4849 23.0428 26.1217 22.1219 25.96 21.9162C25.6697 21.5462 25.1714 20.8924 25.0098 20.3199C25.3612 19.9383 26.1992 19.6164 26.0079 19.0058C25.6746 17.9338 23.7428 18.1894 22.6325 17.3C22.1178 16.8885 22.2366 16.1434 21.9198 15.5312C21.3754 14.4792 20.2321 13.0704 19.1037 12.5593C19.0377 12.3685 20.5753 11.0261 20.0243 9.62402C19.1169 7.30597 16.1672 7.78219 12.475 10.0455C12.1946 10.2164 11.4192 10.447 11.3054 10.7524C10.6554 10.6993 10.4772 11.1191 9.9361 11.3248C9.42303 11.519 9.26795 11.7911 8.86872 12.0599C8.47278 12.1379 8.21047 12.5378 7.81618 12.6141C6.61682 13.2114 1.09679 15.3287 3.61594 20.9305C3.93104 21.6822 4.64703 23.3017 5.64347 25.716C6.80159 28.5269 7.19093 29.8659 8.43318 30.3222C8.45133 30.3604 9.08483 30.6209 9.10298 30.6607C6.03281 31.1436 9.97074 30.7852 7.03915 34.8306C4.67343 38.0961 3.25795 41.4993 3.93434 47.0481C3.96074 47.7267 4.86975 50.9358 5.90083 53.3634C7.77494 57.7805 11.5001 60.9647 12.1319 67.3895C12.7852 74.0384 11.4984 77.9079 8.96275 84.419C7.02926 88.8394 3.64729 92.2526 3.36353 93.1851C7.51428 93.0922 19.0179 90.731 25.1698 85.6718C31.6219 80.367 33.5373 75.1517 35.2942 69.603C35.314 69.603 36.0531 70.3945 36.0713 70.3945C36.5744 70.8823 36.9275 71.0748 37.3383 71.0748C38.9897 66.3873 38.6086 62.6306 35.8205 57.3723C33.9943 53.9292 30.9587 52.1587 32.8427 51.2793C36.7081 48.3556 48.512 38.8942 48.347 38.033C47.9181 35.7863 46.6461 34.1552 46.1726 33.3173C47.7745 31.7824 50.0677 32.6237 51.5376 30.221C52.2057 29.1292 52.963 27.8017 53.5585 27.2691C54.3702 26.7979 55.7791 26.7016 56.7178 26.5705C58.0392 26.3847 59.3425 26.5008 58.8872 25.8255C58.6051 25.4057 58.2025 25.7226 58.1316 25.5451C58.422 25.3227 59.2369 25.1717 58.7453 24.6607C58.5671 24.4748 58.9053 24.3106 58.935 24.1015C59.0291 23.4029 57.1286 23.6269 57.0098 23.3432C58.6067 21.9162 74.0631 9.74349 75.3763 7.78219Z" fill="#00FFBB"/>
</mask>
<g mask="url(#mask0_1381_343)">
<circle cx="37.6857" cy="37.6896" r="37.6896" fill="#00FFBB"/>
</g>
</g>
<defs>
<clipPath id="clip0_1381_343">
<rect width="75.3792" height="75.3792" fill="white" transform="translate(0 -0.000488281)"/>
</clipPath>
<clipPath id="clip1_1381_343">
<rect width="56.9795" height="52.8248" fill="white" transform="translate(18.3984 7.71582)"/>
</clipPath>
</defs>
</svg>
