<svg xmlns="http://www.w3.org/2000/svg" viewBox="0 0 169.28 167"><defs><style>.cls-1{fill:#00ffbb;stroke:#1d1d1b;}</style></defs><g id="Layer_2" data-name="Layer 2"><g id="Layer_1-2" data-name="Layer 1"><circle class="cls-1" cx="85.78" cy="83.5" r="83"/><path d="M.26,79.18c-.31-.06-.38,0,0,0Z"/><path d="M32.22,118.45s.79.82.81.82a1.87,1.87,0,0,0,1.32.71c1.72-4.87,1.33-8.76-1.58-14.22-1.91-3.57-5.08-5.41-3.11-6.32,4-3,16.35-12.86,16.18-13.75a14.23,14.23,0,0,0-2.27-4.89c1.67-1.6,4.07-.72,5.6-3.22a17.34,17.34,0,0,1,2.11-3.06,10.36,10.36,0,0,1,3.3-.73c1.38-.19,2.74-.07,2.26-.77-.29-.44-.71-.11-.78-.29.3-.23,1.15-.39.64-.92-.19-.19.16-.36.19-.58.1-.72-1.88-.49-2-.79C56.55,69,72.68,56.33,74.06,54.3l-.19-.07c-2,1.93-17.64,13.47-18.68,14.39-.06,0,.29-.28.23-.24.66-1.59-3.28-.44-5.81-.48-1.09,0-3.59-.1-4.23.72-.44.57-2,4.62-2.87,5.76-1.14,1.51-2.31,1.94-3.39,2.79-4,3.12-14.38,11.23-14.82,11.17-.71-1.14-2.66-2-3.91-2.66-.27-.58.52-.4.89-1C21,84,20,83.73,19,82.5a12.07,12.07,0,0,1-1.93-2.39c-.52-.87,0-2.11,1.56-3,1.36-.83,3.5-1,4.78-1.65,1.05-.49.51-2.07-.11-2.68s-.64-1-.43-2.17a4.75,4.75,0,0,0-1.44-.14c.55-.3,1.21-1.25,1-1.47a5.65,5.65,0,0,1-1-1.65c.37-.4,1.24-.73,1-1.37-.34-1.11-2.36-.84-3.52-1.77-.54-.42-.41-1.2-.74-1.83a7.48,7.48,0,0,0-2.94-3.09c-.07-.2,1.53-1.59,1-3-1-2.41-4-1.91-7.88.43-.29.18-1.1.42-1.22.74a.55.55,0,0,0-.19,0,83,83,0,0,0,14.13,78.12l.53-.39C28.38,129.62,30.38,124.21,32.22,118.45Z"/><path d="M148.21,119v-8.16h11.37v-2H148.21v-7.82H161v-2H145.89v22H159.8c.34-.67.68-1.33,1-2Z"/><polygon points="102.75 111.9 97.5 99.06 89.53 99.06 98.82 121.04 106.11 121.04 115.4 99.06 108.11 99.06 102.75 111.9"/><polygon points="124.41 101.07 132.13 101.07 132.13 121.04 134.46 121.04 134.46 101.07 142.18 101.07 142.18 99.06 124.41 99.06 124.41 101.07"/><rect x="118.39" y="99.06" width="2.32" height="21.98"/><polygon points="52.84 112.56 62.13 112.56 62.13 107.22 52.84 107.22 52.84 104.65 63.42 104.65 63.42 99.06 45.55 99.06 45.55 121.04 63.83 121.04 63.83 115.45 52.84 115.45 52.84 112.56"/><polygon points="81.12 109.05 72.77 99.06 66.68 99.06 66.68 121.04 73.9 121.04 73.9 111.06 82.25 121.04 88.34 121.04 88.34 99.06 81.12 99.06 81.12 109.05"/></g></g></svg>