<svg xmlns="http://www.w3.org/2000/svg" viewBox="0 0 89.26 92.56"><defs><style>.cls-1{fill:none;stroke:#00ffbb;stroke-width:1.06px;}.cls-2{fill:#00ffbb;}</style></defs><g id="Layer_2" data-name="Layer 2"><g id="Layer_1-2" data-name="Layer 1"><path class="cls-1" d="M43,.53A45.76,45.76,0,0,0,1.07,27.92c1.88-.94,3.32-1,3.81.25.35.87-.62,1.71-.57,1.82a4.54,4.54,0,0,1,1.76,1.85c.2.39.12.85.44,1.11.7.55,1.91.39,2.12,1.06.12.38-.41.58-.63.81a3.36,3.36,0,0,0,.6,1c.1.13-.3.7-.63.88a2.83,2.83,0,0,1,.87.08c-.13.67-.12.94.25,1.31s.7,1.31.07,1.6a26.48,26.48,0,0,0-2.87,1c-.93.56-1.25,1.3-.94,1.83a8.14,8.14,0,0,0,1.16,1.43c.6.73,1.18.89,1.37,1.29-.22.38-.7.27-.53.61a6.41,6.41,0,0,1,2.34,1.6c.27,0,6.51-4.83,8.89-6.7a8.35,8.35,0,0,0,2-1.67c.51-.69,1.46-3.12,1.72-3.46s1.89-.44,2.54-.43c1.51,0,3.88-.67,3.48.29,0,0-.17.17-.14.14.63-.55,10-7.47,11.21-8.63l.11,0C38.7,28.24,29,35.82,28,36.71c.07.17,1.26,0,1.21.47,0,.13-.24.23-.12.35.3.31-.21.41-.39.55.05.11.3-.09.48.17.28.42-.54.35-1.36.47a6.2,6.2,0,0,0-2,.43A10,10,0,0,0,24.61,41c-.92,1.49-2.36,1-3.36,1.92a8.9,8.9,0,0,1,1.36,2.94c.1.53-7.29,6.42-9.71,8.24-1.17.55.73,1.65,1.87,3.79,1.74,3.28,2,5.62,1,8.53a1.13,1.13,0,0,1-.79-.42s-.48-.49-.49-.49c-1.1,3.45-2.3,6.7-6.34,10l-.19.15A45.75,45.75,0,1,0,43,.53Z"/><path class="cls-2" d="M30,64.1v3.11H19.78V55h10v3.11h-5.9v1.44H29v3H23.85V64.1ZM43.64,55V67.21H40.25l-4.66-5.57v5.57h-4V55H35l4.66,5.56V55Zm15.09,0L53.55,67.21H49.49L44.3,55h4.45l2.92,7.16,3-7.16Zm1.67,0h1.29V67.21H60.4Zm7.66,1.12H63.75V55h9.91v1.12h-4.3V67.21h-1.3Zm16.34,10v1.12H75.73V55h8.41v1.12H77v4.36h6.33v1.1H77v4.55Z"/></g></g></svg>