<svg xmlns="http://www.w3.org/2000/svg" viewBox="0 0 92.56 92.56"><defs><style>.cls-1{fill:#00ffbb;}.cls-2{fill:none;stroke:#00ffbb;stroke-width:1.06px;}</style></defs><g id="Layer_2" data-name="Layer 2"><g id="Layer_1-2" data-name="Layer 1"><path class="cls-1" d="M17.74,65.5s.47.49.48.49a1.16,1.16,0,0,0,.8.42c1-2.91.79-5.25-.95-8.53-1.15-2.14-3.05-3.24-1.87-3.79,2.42-1.82,9.81-7.71,9.71-8.24a8.9,8.9,0,0,0-1.36-2.94c1-.95,2.43-.43,3.35-1.92a10.48,10.48,0,0,1,1.27-1.84,6.2,6.2,0,0,1,2-.43c.82-.12,1.64,0,1.35-.47-.17-.26-.43-.06-.47-.17.18-.14.69-.24.38-.55-.11-.12.1-.22.12-.35.06-.44-1.13-.3-1.2-.47,1-.89,10.67-8.47,11.49-9.69l-.11,0c-1.21,1.16-10.57,8.08-11.2,8.63,0,0,.18-.16.14-.14.4-1-2-.27-3.48-.29-.66,0-2.16-.06-2.54.43s-1.21,2.77-1.72,3.46a8.2,8.2,0,0,1-2,1.67c-2.38,1.87-8.61,6.74-8.88,6.7a6.41,6.41,0,0,0-2.34-1.6c-.17-.34.31-.23.53-.61-.19-.4-.78-.56-1.37-1.29A7.51,7.51,0,0,1,8.65,42.5c-.31-.52,0-1.26.94-1.82a26.48,26.48,0,0,1,2.87-1c.63-.29.3-1.24-.07-1.6s-.38-.64-.26-1.31a2.73,2.73,0,0,0-.86-.08c.33-.18.73-.75.63-.88a3.17,3.17,0,0,1-.6-1c.22-.23.75-.43.63-.81-.21-.67-1.42-.51-2.12-1.06-.32-.26-.24-.72-.44-1.11A4.5,4.5,0,0,0,7.6,30c0-.11.93-.95.58-1.82-.49-1.25-1.94-1.19-3.81-.25A45.57,45.57,0,0,0,.84,41l.09,0s.4.19.42.21l-.56.1c0,.19,0,.38-.05.56a1.39,1.39,0,0,1-.06.81C.59,43.91.53,45.09.53,46.28A45.57,45.57,0,0,0,11.2,75.65l.2-.15C15.44,72.2,16.64,69,17.74,65.5Z"/><circle class="cls-2" cx="46.28" cy="46.28" r="45.75"/><path class="cls-1" d="M87,67.21h.74V66.09h-.17C87.35,66.47,87.15,66.84,87,67.21Z"/><polygon class="cls-1" points="42.92 60.52 38.26 54.96 34.86 54.96 34.86 67.21 38.89 67.21 38.89 61.64 43.55 67.21 46.94 67.21 46.94 54.96 42.92 54.96 42.92 60.52"/><path class="cls-1" d="M80.33,66.09V61.54h6.33v-1.1H80.33V56.08h7.1V55H79V67.21H87c.19-.37.39-.74.57-1.12Z"/><polygon class="cls-1" points="54.97 62.12 52.05 54.96 47.6 54.96 52.78 67.21 56.85 67.21 62.03 54.96 57.97 54.96 54.97 62.12"/><polygon class="cls-1" points="27.14 62.48 32.33 62.48 32.33 59.51 27.14 59.51 27.14 58.07 33.05 58.07 33.05 54.96 23.08 54.96 23.08 67.21 33.27 67.21 33.27 64.09 27.14 64.09 27.14 62.48"/><polygon class="cls-1" points="67.05 56.08 71.36 56.08 71.36 67.21 72.65 67.21 72.65 56.08 76.96 56.08 76.96 54.96 67.05 54.96 67.05 56.08"/><rect class="cls-1" x="63.69" y="54.96" width="1.3" height="12.25"/></g></g></svg>